<?xml version="1.0" encoding="UTF-8" standalone="no"?>
<svg
   xmlns:dc="http://purl.org/dc/elements/1.1/"
   xmlns:cc="http://creativecommons.org/ns#"
   xmlns:rdf="http://www.w3.org/1999/02/22-rdf-syntax-ns#"
   xmlns:svg="http://www.w3.org/2000/svg"
   xmlns="http://www.w3.org/2000/svg"
   xmlns:sodipodi="http://sodipodi.sourceforge.net/DTD/sodipodi-0.dtd"
   xmlns:inkscape="http://www.inkscape.org/namespaces/inkscape"
   inkscape:version="1.0 (4035a4fb49, 2020-05-01)"
   sodipodi:docname="icon.svg"
   xml:space="preserve"
   style="enable-background:new 0 0 90 90;"
   viewBox="22 18 52 52"
   y="0px"
   x="0px"
   id="Layer_1"
   version="1.1"><metadata
   id="metadata26"><rdf:RDF><cc:Work
       rdf:about=""><dc:format>image/svg+xml</dc:format><dc:type
         rdf:resource="http://purl.org/dc/dcmitype/StillImage" /></cc:Work></rdf:RDF></metadata><defs
   id="defs24" /><sodipodi:namedview
   inkscape:current-layer="Layer_1"
   inkscape:window-maximized="0"
   inkscape:window-y="324"
   inkscape:window-x="1303"
   inkscape:cy="19.224154"
   inkscape:cx="23.641852"
   inkscape:zoom="15.182692"
   showgrid="false"
   id="namedview22"
   inkscape:window-height="1328"
   inkscape:window-width="1840"
   inkscape:pageshadow="2"
   inkscape:pageopacity="0"
   guidetolerance="10"
   gridtolerance="10"
   objecttolerance="10"
   borderopacity="1"
   bordercolor="#666666"
   pagecolor="#ffffff" />
	<style
   id="style2"
   type="text/css">
	.st0{filter:url(#Adobe_OpacityMaskFilter);}
	.st1{fill:#FFFFFF;}
	.st2{mask:url(#mask-2_2_);fill:#666666;}
	.st3{fill:#4e67b7;}
	</style>
	<g
   transform="matrix(0.78085905,0,0,0.77132728,10.882897,9.6360287)"
   id="g19">
		<g
   id="g17">
			<g
   transform="translate(27.610586,3.175803)"
   id="Group-3_16_">
				<defs
   id="defs7">
					<filter
   height="45.900002"
   width="32.799999"
   y="18.4"
   x="-4.5999999"
   filterUnits="userSpaceOnUse"
   id="Adobe_OpacityMaskFilter">
						<feColorMatrix
   id="feColorMatrix4"
   values="1 0 0 0 0  0 1 0 0 0  0 0 1 0 0  0 0 0 1 0"
   type="matrix" />
					</filter>
				</defs>
				<mask
   id="mask-2_2_"
   height="45.9"
   width="32.8"
   y="18.4"
   x="-4.6"
   maskUnits="userSpaceOnUse">
					<g
   id="g10"
   class="st0">
						<polygon
   points="-4.6,64.3 28.3,64.3 28.3,18.4 -4.6,18.4 "
   class="st1"
   id="path-1_2_" />
					</g>
				</mask>
				<path
   mask="url(#mask-2_2_)"
   d="m 4.7,34 c 0,1 0.2,1.9 0.6,2.8 0.4,0.9 0.9,1.7 1.6,2.4 0.7,0.7 1.5,1.2 2.4,1.7 0.9,0.4 1.9,0.6 3,0.6 1,0 2,-0.2 2.9,-0.6 0.9,-0.4 1.7,-1 2.4,-1.7 0.7,-0.7 1.2,-1.5 1.6,-2.4 0.4,-0.9 0.6,-1.8 0.6,-2.8 0,-1 -0.2,-1.9 -0.6,-2.8 -0.4,-0.9 -0.9,-1.7 -1.6,-2.4 -0.7,-0.7 -1.5,-1.2 -2.4,-1.6 -0.9,-0.4 -1.9,-0.6 -2.9,-0.6 -1.1,0 -2.1,0.2 -3,0.6 -0.9,0.4 -1.7,1 -2.4,1.6 C 6.2,29.5 5.7,30.3 5.3,31.2 4.9,32.1 4.7,33 4.7,34 Z m 23.6,12.8 c 0,5.7 -1.4,10.1 -4.3,13 -2.9,3 -7.3,4.5 -13.1,4.5 -2.7,0 -5.3,-0.3 -8,-0.9 -2.6,-0.6 -5,-1.8 -7.2,-3.5 l 5.2,-7.7 c 1.5,1.2 3,2.2 4.6,2.9 1.6,0.7 3.3,1.1 5.3,1.1 2.9,0 5,-0.7 6.3,-2.1 1.3,-1.4 2,-3.2 2,-5.3 V 45.9 H 19 c -1.1,1.5 -2.4,2.5 -4,3.1 -1.6,0.6 -3.1,0.9 -4.5,0.9 C 8.3,49.9 6.2,49.5 4.4,48.8 2.6,48 1,47 -0.3,45.6 c -1.3,-1.4 -2.3,-3 -3,-4.9 -0.7,-1.9 -1.1,-4 -1.1,-6.3 0,-2 0.3,-3.9 1,-5.8 0.6,-1.9 1.6,-3.6 2.7,-5 1.2,-1.4 2.6,-2.6 4.3,-3.5 1.7,-0.9 3.6,-1.3 5.8,-1.3 1.3,0 2.5,0.1 3.6,0.4 1.1,0.3 2.1,0.7 3,1.1 0.9,0.5 1.6,1 2.2,1.5 0.6,0.6 1.1,1.1 1.5,1.6 h 0.1 v -4 h 8.6 v 27.4 z"
   class="st2"
   id="Fill-1_16_" />
			</g>
			<path
   id="path15"
   d="m 73.7,47.2 c 0,3.2 -2.6,5.8 -5.8,5.8 -3.2,0 -5.8,-2.6 -5.8,-5.8 0,-3.2 2.6,-5.8 5.8,-5.8 3.2,0 5.8,2.6 5.8,5.8 z"
   class="st3 getpro-theme" />
		</g>
	</g>
</svg>
