<svg xmlns="http://www.w3.org/2000/svg" viewBox="0 0 334.82 101.57"><defs><style>.cls-1{fill:#fff;}.cls-2{fill:#2f475b;}</style></defs><title>Asset 1</title><g id="Layer_2" data-name="Layer 2"><g id="Calque_1" data-name="Calque 1"><path class="cls-1" d="M331.17,66.37a14.22,14.22,0,0,1-6.79,2c-4.6,0-6.91-1.73-6.93-8.08l-.09-25.54h4.08l10.28,0,0-11.95-14.36.05-.07-20.61L302,2.24l.07,20.6-23.45.09V19.31c0-5.48,2.06-8,6.65-8a26.49,26.49,0,0,1,10.32,2.6l3.58-10.09C295.33,1.61,288,0,283,0c-17.75.06-19.69,11.46-19.65,20.79l.11,32.63h0s-11.18,9-13.22,10.49h0c-3.06,2.09-7.77,4.74-13.69,4.76-8.33,0-11.86-5.55-12.64-10.81,13.26-.59,30-3.94,30-20.49,0-10.41-7.18-16-18.25-15.95-18,.07-27.24,14.79-27.18,30.9,0,1.49.07,2.93.21,4.34l-9.37,7.42a24.15,24.15,0,0,1-13.69,4.76C177.3,68.87,173.78,63.3,173,58c13.27-.59,30-3.93,30-20.49,0-10.41-7.19-16-18.25-15.94-13.42,0-22,8.27-25.45,19.15a65.53,65.53,0,0,1-11.47-12.91l-.41-.6q-1.25-1.84-2.45-3.85h0L130,23.44h0c1.88,7.22,3.67,16.42,3.7,24.86,0,9.2-1.36,20.5-9.36,20.52-5.81,0-6-4.58-6.07-10.83l-.11-34.52-15.24.05.13,36.28c0,5-3.37,9.11-8.3,9.13-5.48,0-6.16-4.37-6.18-10.39l-.12-35-15.23.05.13,37.71c0,13,6.86,19.38,19,19.33,7,0,12.7-2.23,17.39-8.39,2.43,4.93,6.83,8.31,14.94,8.28,16.33,0,24.07-12.69,24-32.74,0-.38,0-.77,0-1.15A55.94,55.94,0,0,0,157.52,53c.21,16.17,7.73,27.52,26.18,27.46,11.07,0,18-4.62,20-6.21,1.45-1.13,5.57-4.58,7.83-6.47,3.75,7.78,11.12,12.54,23.09,12.5a35.39,35.39,0,0,0,19.49-5.79c2.7-2,9.39-7.74,9.39-7.74l.12,34.81,15.24,0-.23-66.65,23.45-.08.09,24.33c0,9.1.29,20.94,18.05,20.88,5.48,0,11.17-1.69,14.56-4ZM157.61,49.44v0ZM184,32.35c3.39,0,5.59,2.07,5.6,5.35,0,7.56-10.16,9.35-17.28,9.6C172.6,39.73,176.51,32.38,184,32.35Zm51-.18c3.4,0,5.6,2.07,5.61,5.36,0,7.55-10.16,9.34-17.29,9.59C223.56,39.56,227.48,32.2,234.93,32.17Z"/><path class="cls-2" d="M0,64.79C0,59.1,7,52.91,7.78,53.5c4.88,4.49,14.5,8.73,22.56,8.7,7.23,0,10.54-2.05,10.53-6,0-4.75-5.95-5.56-13.54-7.07C14.52,46.49,1.7,41.55,1.64,25.67S13.17.5,34.15.43c10.56,0,17.91,2,22.66,4.9,4.28,2.59,6.19,5.9,6.2,9.58,0,6.63-7.9,12.35-8.37,12-5.12-4.73-13-8.26-20.18-8.23-6.88,0-10.19,2.05-10.18,6,0,4.39,6.06,4.84,14,6.59,15.07,3.15,26.59,9.27,26.64,23.38C65,71.32,53.4,80.37,30.52,80.45c-12,0-20-2.3-24.8-5.6C1.69,72.14,0,68.59,0,64.79Z"/></g></g></svg>