<svg xmlns="http://www.w3.org/2000/svg" viewBox="0 0 100.65 123.98"><defs><style>.cls-1{fill:#fff;}</style></defs><title>Asset 5</title><g id="Layer_2" data-name="Layer 2"><g id="Calque_1" data-name="Calque 1"><path class="cls-1" d="M0,99.55C0,90.73,10.84,81.18,12.12,82.1c7.53,7,22.41,13.59,34.9,13.59,11.2,0,16.35-3.12,16.35-9.18,0-7.35-9.19-8.63-20.94-11C22.59,71.26,2.76,63.55,2.76,38.94,2.76,14.51,20.76,0,53.26,0,69.61,0,81,3.12,88.35,7.71c6.61,4,9.55,9.19,9.55,14.88,0,10.29-12.31,19.1-13,18.55-7.9-7.34-20-12.85-31.23-12.85-10.65,0-15.79,3.12-15.79,9.18,0,6.79,9.36,7.53,21.67,10.28,23.33,5,41.14,14.51,41.14,36.37,0,25.9-18,39.86-53.45,39.86-18.55,0-31-3.68-38.38-8.82C2.57,110.94,0,105.43,0,99.55Z"/></g></g></svg>